<mxfile host="app.diagrams.net" modified="2021-09-01T17:28:08.789Z" agent="5.0 (Macintosh; Intel Mac OS X 10_15_7) AppleWebKit/537.36 (KHTML, like Gecko) Chrome/92.0.4515.131 Safari/537.36" etag="_JCAkUbSXPHaFG770TWV" version="15.0.4" type="github">
  <diagram id="dEWlquXykYVMRGdEMNU4" name="Page-1">
    <mxGraphModel dx="1186" dy="771" grid="1" gridSize="10" guides="1" tooltips="1" connect="1" arrows="1" fold="1" page="1" pageScale="1" pageWidth="850" pageHeight="1100" math="0" shadow="0">
      <root>
        <mxCell id="0" />
        <mxCell id="1" parent="0" />
        <mxCell id="RPYkLGwSfkGvGt-0sEAj-2" style="edgeStyle=orthogonalEdgeStyle;rounded=0;orthogonalLoop=1;jettySize=auto;html=1;exitX=1;exitY=0.5;exitDx=0;exitDy=0;" edge="1" parent="1" source="RPYkLGwSfkGvGt-0sEAj-1" target="RPYkLGwSfkGvGt-0sEAj-3">
          <mxGeometry relative="1" as="geometry">
            <mxPoint x="240" y="80" as="targetPoint" />
          </mxGeometry>
        </mxCell>
        <mxCell id="RPYkLGwSfkGvGt-0sEAj-1" value="IPD Form" style="whiteSpace=wrap;html=1;aspect=fixed;" vertex="1" parent="1">
          <mxGeometry x="40" y="40" width="80" height="80" as="geometry" />
        </mxCell>
        <mxCell id="RPYkLGwSfkGvGt-0sEAj-4" style="edgeStyle=orthogonalEdgeStyle;rounded=0;orthogonalLoop=1;jettySize=auto;html=1;exitX=1;exitY=0.5;exitDx=0;exitDy=0;" edge="1" parent="1" source="RPYkLGwSfkGvGt-0sEAj-3" target="RPYkLGwSfkGvGt-0sEAj-5">
          <mxGeometry relative="1" as="geometry">
            <mxPoint x="380" y="80" as="targetPoint" />
          </mxGeometry>
        </mxCell>
        <mxCell id="RPYkLGwSfkGvGt-0sEAj-3" value="PatientDetails" style="whiteSpace=wrap;html=1;aspect=fixed;" vertex="1" parent="1">
          <mxGeometry x="200" y="40" width="80" height="80" as="geometry" />
        </mxCell>
        <mxCell id="RPYkLGwSfkGvGt-0sEAj-6" style="edgeStyle=orthogonalEdgeStyle;rounded=0;orthogonalLoop=1;jettySize=auto;html=1;exitX=1;exitY=0.5;exitDx=0;exitDy=0;" edge="1" parent="1" source="RPYkLGwSfkGvGt-0sEAj-5" target="RPYkLGwSfkGvGt-0sEAj-7">
          <mxGeometry relative="1" as="geometry">
            <mxPoint x="500" y="80" as="targetPoint" />
          </mxGeometry>
        </mxCell>
        <mxCell id="RPYkLGwSfkGvGt-0sEAj-5" value="Discharge&lt;br&gt;Data" style="whiteSpace=wrap;html=1;aspect=fixed;" vertex="1" parent="1">
          <mxGeometry x="340" y="40" width="80" height="80" as="geometry" />
        </mxCell>
        <mxCell id="RPYkLGwSfkGvGt-0sEAj-10" style="edgeStyle=orthogonalEdgeStyle;rounded=0;orthogonalLoop=1;jettySize=auto;html=1;exitX=1;exitY=0.25;exitDx=0;exitDy=0;" edge="1" parent="1" source="RPYkLGwSfkGvGt-0sEAj-7" target="RPYkLGwSfkGvGt-0sEAj-9">
          <mxGeometry relative="1" as="geometry" />
        </mxCell>
        <mxCell id="RPYkLGwSfkGvGt-0sEAj-7" value="Enter&lt;br&gt;FileNo to view discharge" style="whiteSpace=wrap;html=1;aspect=fixed;" vertex="1" parent="1">
          <mxGeometry x="480" y="40" width="80" height="80" as="geometry" />
        </mxCell>
        <mxCell id="RPYkLGwSfkGvGt-0sEAj-9" value="Discharge&lt;br&gt;edit&lt;br&gt;Print" style="whiteSpace=wrap;html=1;aspect=fixed;rounded=0;" vertex="1" parent="1">
          <mxGeometry x="740" y="20" width="80" height="80" as="geometry" />
        </mxCell>
        <mxCell id="RPYkLGwSfkGvGt-0sEAj-13" style="edgeStyle=orthogonalEdgeStyle;rounded=0;orthogonalLoop=1;jettySize=auto;html=1;exitX=1;exitY=0.5;exitDx=0;exitDy=0;" edge="1" parent="1" source="RPYkLGwSfkGvGt-0sEAj-12">
          <mxGeometry relative="1" as="geometry">
            <mxPoint x="650" y="210" as="targetPoint" />
          </mxGeometry>
        </mxCell>
        <mxCell id="RPYkLGwSfkGvGt-0sEAj-12" value="" style="triangle;whiteSpace=wrap;html=1;rounded=0;rotation=90;" vertex="1" parent="1">
          <mxGeometry x="620" y="50" width="60" height="80" as="geometry" />
        </mxCell>
        <mxCell id="RPYkLGwSfkGvGt-0sEAj-14" value="isDischarged&amp;nbsp;" style="text;html=1;strokeColor=none;fillColor=none;align=center;verticalAlign=middle;whiteSpace=wrap;rounded=0;" vertex="1" parent="1">
          <mxGeometry x="630" y="120" width="40" height="20" as="geometry" />
        </mxCell>
        <mxCell id="RPYkLGwSfkGvGt-0sEAj-15" value="!isDischarged" style="text;html=1;strokeColor=none;fillColor=none;align=center;verticalAlign=middle;whiteSpace=wrap;rounded=0;" vertex="1" parent="1">
          <mxGeometry x="630" y="40" width="40" height="20" as="geometry" />
        </mxCell>
        <mxCell id="RPYkLGwSfkGvGt-0sEAj-16" value="DischargePrint&lt;br&gt;Locked" style="rounded=0;whiteSpace=wrap;html=1;" vertex="1" parent="1">
          <mxGeometry x="590" y="210" width="120" height="60" as="geometry" />
        </mxCell>
      </root>
    </mxGraphModel>
  </diagram>
</mxfile>
